<?xml version="1.0" encoding="utf-8"?>
<!-- Generator: Adobe Illustrator 26.1.0, SVG Export Plug-In . SVG Version: 6.00 Build 0)  -->
<svg version="1.1" id="Layer_1" xmlns="http://www.w3.org/2000/svg" xmlns:xlink="http://www.w3.org/1999/xlink" x="0px" y="0px"
	 viewBox="0 0 600 60" style="enable-background:new 0 0 600 60;" xml:space="preserve">
<style type="text/css">
	.st0{fill:#EB483F;}
	.st1{fill:#FFFFFF;}
</style>
<path class="st0" d="M35.4,3.6C50.1,3.6,62,15.6,62,30.3l0,0C62,45.1,50.1,57,35.4,57H34V3.6H35.4z M31.3,3.6h-24C6.6,3.6,6,4.3,6,5
	v50.7C6,56.4,6.6,57,7.3,57h24V3.6z M120.7,57h22.2c1.2,0,1.8-1.4,1-2.3l-23.2-24.4V57z M92.7,4.3V57H118V27.6L95,3.4
	C94.2,2.5,92.7,3.1,92.7,4.3z M64.7,4.3v51.3c0,0.7,0.6,1.3,1.3,1.3h24V27.6L67,3.4C66.1,2.5,64.7,3.1,64.7,4.3z"/>
<g id="studio">
	<path class="st1" d="M159.4,7h6v43.7h23.2V56h-29.2V7z"/>
	<path class="st1" d="M198.2,18.9h18.2v32.2h12.3V56h-30.8v-4.9h12.9V23.8h-12.5V18.9z M210.3,4.9h6.6v6.5h-6.6V4.9z"/>
	<path class="st1" d="M230.1,18.9h6L247.5,48h0.1L259,18.9h6L250,56h-4.9L230.1,18.9z"/>
	<path class="st1" d="M302,47.6c-2.5,4.8-7.4,9.5-15.5,9.5c-9.9,0-17.4-7.6-17.4-19.6c0-12,7.3-19.6,17.1-19.6
		c9.7,0,16.8,7.2,16.8,19.6v1.7h-28c0.1,6.6,3.6,12.7,11.3,12.7c7.5,0,9.7-4.9,11-7.4L302,47.6z M297.2,34.6
		c-0.1-5.4-2.9-11.6-11-11.6c-8,0-11,7-11.1,11.6H297.2z"/>
	<path class="st1" d="M333.2,38c1.3,9,4.1,13.7,13.1,13.7c7,0,10-4.1,10-8.5c0-4.9-1.5-7-12.3-11c-9.7-3.6-14.7-6.7-14.7-13.7
		c0-7.1,5.9-12.5,14.8-12.5c7.9,0,15.1,4.3,16.3,13.5l-5.8,1.3c-1-5.4-3.7-9.2-10.5-9.2c-6,0-8.8,3.2-8.8,7c0,3.2,1.3,5.2,11.3,8.9
		c11.7,4.3,15.6,7.3,15.6,15.5c0,7.6-5.7,14.2-16.2,14.2c-11.4,0-17.6-6.3-19-17.9L333.2,38z"/>
	<path class="st1" d="M379.1,24h-11.8v-5.1h11.9V9.8h5.6v9.1h13.4V24h-13.3v20.5c0,4.1,0.8,6,4.6,6h6.3V56h-6.6
		c-7.2,0-10-3.9-10-10.8V24z"/>
	<path class="st1" d="M407.5,18.9h5.7v23.3c0,6.9,2.5,9.5,8.6,9.5c5.6,0,8.7-3.6,8.7-9.8v-23h5.7V56h-5.7v-3.6h-0.1
		c0,0-3.2,4.6-9.9,4.6c-8,0-13.1-4.4-13.1-14V18.9z"/>
	<path class="st1" d="M473.4,52.5h-0.1c-1.5,1.8-5.3,4.6-10.9,4.6c-9.8,0-16.2-7.7-16.2-19.6c0-12.1,7.3-19.6,16.2-19.6
		c5,0,8.4,2.4,10.3,4.6h0.1V4.9h5.7V56h-5.2V52.5z M472.8,32.2c0-4.3-3.4-9.2-9.5-9.2c-7.4,0-11.3,5.4-11.3,14.4
		c0,9,3.9,14.4,11.3,14.4c5.6,0,9.5-3.9,9.5-8.2V32.2z"/>
	<path class="st1" d="M490.8,18.9H509v32.2h12.3V56h-30.8v-4.9h12.9V23.8h-12.5V18.9z M502.9,4.9h6.6v6.5h-6.6V4.9z"/>
	<path class="st1" d="M527.5,37.5c0-12.7,8.1-19.6,17-19.6c8.8,0,16.7,6.9,16.7,19.6c0,12.7-7.4,19.6-16.7,19.6
		C535,57.1,527.5,50.1,527.5,37.5z M555.3,37.5c0-9.4-4.7-14.4-10.9-14.4c-6.3,0-11.1,4.9-11.1,14.4c0,9.6,4.9,14.4,11.1,14.4
		C550.5,51.9,555.3,46.9,555.3,37.5z"/>
</g>
</svg>
