<?xml version="1.0" encoding="utf-8"?>
<!-- Generator: Adobe Illustrator 26.1.0, SVG Export Plug-In . SVG Version: 6.00 Build 0)  -->
<svg version="1.1" id="Layer_1" xmlns="http://www.w3.org/2000/svg" xmlns:xlink="http://www.w3.org/1999/xlink" x="0px" y="0px"
	 viewBox="0 0 545 216" style="enable-background:new 0 0 545 216;" xml:space="preserve">
<style type="text/css">
	.st0{fill:#FF3333;}
</style>
<path class="st0" d="M124.3,5.5c56.3,0,102,45.7,102,102l0,0c0,56.3-45.7,102-102,102h-5.1V5.5H124.3z M109,5.5H17.2
	c-2.8,0-5.1,2.3-5.1,5.1v193.8c0,2.8,2.3,5.1,5.1,5.1H109C109,209.5,109,5.5,109,5.5z M450.7,209.5h85c4.5,0,6.8-5.4,3.7-8.6
	l-88.7-93.1L450.7,209.5L450.7,209.5z M343.6,8.1v201.4h96.9V97.1L352.4,4.6C349.2,1.2,343.6,3.5,343.6,8.1z M236.5,8.1v196.3
	c0,2.8,2.3,5.1,5.1,5.1h91.8V97.1L245.3,4.6C242.1,1.2,236.5,3.5,236.5,8.1z"/>
</svg>
